<?xml version="1.0" encoding="UTF-8"?>
<svg xmlns="http://www.w3.org/2000/svg" viewBox="0 0 435.76 430.11">
  <defs>
    <style>
      .cls-1 {
        fill: #d1d3d4;
      }

      .cls-2 {
        fill: #bcbec0;
      }

      .cls-3 {
        fill: #231f20;
      }

      .cls-4 {
        fill: #603913;
      }

      .cls-5 {
        fill: #fff;
      }

      .cls-6 {
        fill: none;
        stroke: #231f20;
        stroke-linecap: round;
        stroke-miterlimit: 10;
        stroke-width: 7px;
      }

      .cls-7 {
        fill: #009444;
      }

      .cls-8 {
        fill: #006838;
      }
    </style>
  </defs>
  <g id="Wings">
    <path class="cls-2" d="M217.45,27.04c1.61.88-12.5,17.07-18.04,44.69-6.02,29.99,1.29,57.38,3.48,57.44,1.28.03.26-9.26,4.27-23.43,5.27-18.63,16.61-36.46,21.4-35.13,5.65,1.58-7.09,27.3,7.51,49.57,11.04,16.85,26.62,14.77,46.63,29.26,29.43,21.32,48.3,63.89,36.36,98.19-9.99,28.7-38.22,42.07-54.8,49.92-13.27,6.29-19.2-1.41-66.66-3.58-61.1-2.8-126.56-130.53-103.43-194.63C114.89,41.92,186.75-3.78,185.82.25c-5.79,24.93-24.3,130.28-24.11,129.23,9.89-54.21,53.73-103.54,55.74-102.43Z"/>
  </g>
  <g id="Body">
    <ellipse class="cls-7" cx="279.92" cy="269.5" rx="155.83" ry="160.62"/>
    <path class="cls-4" d="M183.2,131c-19.98,9.28-28.36,39.23-27.1,40.98,12.45,17.21,75.01-8.07,116.28-13.07,41.27-5,129.38,18.57,123.89-2.72-5.46-21.17-36.78-35.58-48.4-40.3-44.23-17.96-84.63-12.89-94.29-11.49-7.47,1.08-36.01,10.63-70.39,26.6Z"/>
    <path class="cls-6" d="M253.27,361.31c2.55-8.58,2.37-9.9,19.19-22.9,16.24-12.55,32.48-13.18,60.74-14.28,23.25-.9,44.49-1.43,54.14,12.63,3.7,5.39,4.6,11.35,4.8,15.46"/>
    <path class="cls-1" d="M120.74,76.06c1.67.77-11.26,17.92-14.83,45.85-3.88,30.34,5.35,57.15,7.54,57.05,1.28-.06-.4-9.25,2.6-23.68,3.94-18.96,13.99-37.55,18.86-36.55,5.75,1.17-5.14,27.73,11,48.92,12.21,16.02,27.6,12.85,48.58,25.88,30.87,19.18,52.7,60.31,43.22,95.37-7.93,29.33-35.15,44.67-51.13,53.67-12.79,7.21-19.25-.05-66.75,1.14-61.14,1.53-135.48-121.24-116.95-186.82C19.49,98.16,87.94,47.49,87.29,51.57c-4.01,25.28-15.01,131.67-14.9,130.61,6.03-54.77,46.27-107.08,48.35-106.12Z"/>
  </g>
  <g id="Eye">
    <ellipse class="cls-5" cx="326.13" cy="253.85" rx="53.63" ry="55.28"/>
    <ellipse class="cls-3" cx="332.54" cy="244.46" rx="31.71" ry="32.68"/>
    <path class="cls-8" d="M258.63,195.79c-6.75,14.62-20.91,32.61-4.72,37.11s39.13-5.62,64.09-6.75c24.96-1.12,19.79-15.04,47-1.9,27.21,13.14,48.8,1.92,38-9.34-10.79-11.26-22.94-19.13-35.08-19.13"/>
  </g>
</svg>