<?xml version="1.0" encoding="UTF-8"?>
<svg xmlns="http://www.w3.org/2000/svg" viewBox="0 0 3609.98 779.12">
  <defs>
    <style>
      .cls-1 {
        fill: #61d9ff;
      }

      .cls-2 {
        fill: #aad4ff;
      }

      .cls-3 {
        fill: #61bdff;
      }

      .cls-4 {
        fill: #619bff;
      }
    </style>
  </defs>
  <g id="Darkblue1">
    <path class="cls-4" d="M15.53,779.12S-28.02,202.12,201.98,121.12,762.98-3.88,855.98,26.12s159,87,263,91,152,35,329-21,214.55-114.91,378.78-79.46,96.22-46.54,240.22,79.46,138,71,269,49,95,82,226,58,218.7-241.42,390.35-197.21,396.65,95.21,485.65,141.21,172,590,172,610-11.63,22-11.63,22H15.53Z"/>
  </g>
  <g id="blue2">
    <path class="cls-3" d="M3.98,729.12s-45.91-395.43,174.04-430.72,465.96-145.28,641.96-133.28c109.04,7.43,479.93,83.99,601,0,132.05-91.61,440.74,166.43,529,178,105.85,13.87,110.38-32.38,275-34,168.31-1.65,191-115,349,8s148.31,121,237.65,107,176.35-208,297.35-206,338,128,376,180,40.05,345,40.05,345L3.98,729.12Z"/>
  </g>
  <g id="cyan3">
    <path class="cls-1" d="M3375.49,743.12s30.49-281-84.51-253-178-16-423,47c-79.11,20.34-153.84-32.02-292.85-68-139.09-36-527.23-46.02-778.15,30-351.55,106.51-685.07-76.85-761-140-162.08-134.81-670.53-11.06-796,45C-33.88,526.48,35.76,743.12,35.76,743.12h3339.74Z"/>
  </g>
  <g id="lightblue4">
    <path class="cls-2" d="M600.98,441.65s413.5-37.03,507.5,61.97c0,0,236,184,321,194s408-122,556-117,313.64,127.29,351,108c81.7-42.18,638.13-90.88,634.5-29.5-2.67,45.1,177,90,177,90,0,0-2631.26,21.37-2635.5,21.5-179.5,5.5-431.12,31.34-411.5-48.5,43-175,3.05-205.34,500-280.47Z"/>
  </g>
</svg>